<svg width="75" height="75" viewBox="0 0 75 75" fill="none" xmlns="http://www.w3.org/2000/svg">
<path d="M20 44C21.8565 44 23.637 43.3152 24.9497 42.0962C26.2625 40.8772 27 39.2239 27 37.5C27 35.7761 26.2625 34.1228 24.9497 32.9038C23.637 31.6848 21.8565 31 20 31C18.1435 31 16.363 31.6848 15.0503 32.9038C13.7375 34.1228 13 35.7761 13 37.5C13 39.2239 13.7375 40.8772 15.0503 42.0962C16.363 43.3152 18.1435 44 20 44V44Z" stroke="white" stroke-width="6" stroke-linecap="round" stroke-linejoin="round"/>
<path d="M55 44C56.8565 44 58.637 43.3152 59.9497 42.0962C61.2625 40.8772 62 39.2239 62 37.5C62 35.7761 61.2625 34.1228 59.9497 32.9038C58.637 31.6848 56.8565 31 55 31C53.1435 31 51.363 31.6848 50.0503 32.9038C48.7375 34.1228 48 35.7761 48 37.5C48 39.2239 48.7375 40.8772 50.0503 42.0962C51.363 43.3152 53.1435 44 55 44V44Z" stroke="white" stroke-width="6" stroke-linecap="round" stroke-linejoin="round"/>
<path d="M37.5 27C39.2239 27 40.8772 26.2625 42.0962 24.9497C43.3152 23.637 44 21.8565 44 20C44 18.1435 43.3152 16.363 42.0962 15.0503C40.8772 13.7375 39.2239 13 37.5 13C35.7761 13 34.1228 13.7375 32.9038 15.0503C31.6848 16.363 31 18.1435 31 20C31 21.8565 31.6848 23.637 32.9038 24.9497C34.1228 26.2625 35.7761 27 37.5 27Z" stroke="white" stroke-width="6" stroke-linecap="round" stroke-linejoin="round"/>
<path d="M37.5 62C39.2239 62 40.8772 61.2625 42.0962 59.9497C43.3152 58.637 44 56.8565 44 55C44 53.1435 43.3152 51.363 42.0962 50.0503C40.8772 48.7375 39.2239 48 37.5 48C35.7761 48 34.1228 48.7375 32.9038 50.0503C31.6848 51.363 31 53.1435 31 55C31 56.8565 31.6848 58.637 32.9038 59.9497C34.1228 61.2625 35.7761 62 37.5 62Z" stroke="white" stroke-width="6" stroke-linecap="round" stroke-linejoin="round"/>
<path d="M3 37.5V72M3 37.5C3 56.5543 18.4457 72 37.5 72C56.5543 72 72 56.5543 72 37.5C72 18.4457 56.5543 3 37.5 3C18.4457 3 3 18.4457 3 37.5Z" stroke="white" stroke-width="6" stroke-linecap="round" stroke-linejoin="round"/>
</svg>
