<svg width="74" height="74" viewBox="0 0 74 74" fill="none" xmlns="http://www.w3.org/2000/svg">
<path d="M24.1406 44.7093C18.3421 45.0822 13.0798 47.2906 10.0939 55.1589C9.75422 56.0564 8.93764 56.6013 7.9852 56.6013C6.37948 56.6013 1.41493 52.6021 0 51.6367C0.00144528 63.5388 5.48341 74 18.5011 74C29.465 74 37.0007 67.6739 37.0007 56.6288C37.0007 56.1793 36.9068 55.75 36.8605 55.3092L24.1406 44.7093ZM66.1796 0C63.9885 0 61.9348 0.969805 60.3681 2.37754C30.825 28.7689 27.7509 29.389 27.7509 37.1575C27.7509 39.1376 28.2206 41.0252 29.0126 42.7509L38.2364 50.4371C39.2785 50.6972 40.3523 50.875 41.4724 50.875C50.4491 50.875 55.6521 44.3032 71.9911 13.8085C73.0577 11.7345 74 9.49426 74 7.16152C74 2.98312 70.2423 0 66.1796 0Z" fill="white"/>
</svg>
