<svg width="92" height="32" viewBox="0 0 92 32" fill="none" xmlns="http://www.w3.org/2000/svg">
<path d="M32.2006 25.1404C32.2006 28.9361 29.1187 32 25.3008 32C21.483 32 18.4011 28.9361 18.4011 25.1404C18.4011 21.3448 21.483 18.2809 25.3008 18.2809C29.1187 18.2809 32.2006 21.3448 32.2006 25.1404ZM66.6992 18.2809C62.8813 18.2809 59.7994 21.3448 59.7994 25.1404C59.7994 28.9361 62.8813 32 66.6992 32C70.517 32 73.5989 28.9361 73.5989 25.1404C73.5989 21.3448 70.517 18.2809 66.6992 18.2809ZM90.1122 0.857626C88.0423 -0.605746 85.0984 -0.148441 83.6725 1.86369L83.0745 2.68684C82.2466 3.87583 80.8206 4.56179 79.3947 4.56179L12.6053 4.56179C11.1794 4.56179 9.79945 3.87583 8.92548 2.68684L8.32751 1.86369C6.90156 -0.148441 3.95768 -0.605746 1.88776 0.857626C-0.182153 2.27527 -0.596136 5.24774 0.875805 7.25988L1.47378 8.08303C4.04968 11.6043 8.23551 13.7079 12.6053 13.7079L79.3947 13.7079C83.7645 13.7079 87.9503 11.6043 90.5262 8.08303L91.1242 7.25988C92.5961 5.24774 92.1822 2.27527 90.1122 0.857626Z" fill="white"/>
</svg>
