<svg width="54" height="40" viewBox="0 0 54 40" fill="none" xmlns="http://www.w3.org/2000/svg">
<path d="M51.1312 5.58333L40.5 11.5V3.33333C40.5 2.44928 40.1444 1.60143 39.5115 0.976311C38.8785 0.351189 38.0201 0 37.125 0H6.75C4.95979 0 3.2429 0.702379 1.97703 1.95262C0.711159 3.20286 0 4.89856 0 6.66667V33.3333C0 35.1014 0.711159 36.7971 1.97703 38.0474C3.2429 39.2976 4.95979 40 6.75 40H37.125C38.0201 40 38.8785 39.6488 39.5115 39.0237C40.1444 38.3986 40.5 37.5507 40.5 36.6667V28.4667L51.1312 34.3833C51.404 34.5593 51.7188 34.6614 52.0442 34.6791C52.3695 34.6969 52.6938 34.6297 52.9845 34.4845C53.2752 34.3392 53.5221 34.121 53.7004 33.8516C53.8786 33.5822 53.982 33.2713 54 32.95V7C53.9792 6.68014 53.8739 6.37125 53.6945 6.10413C53.5151 5.83702 53.268 5.62102 52.9777 5.47768C52.6874 5.33434 52.3642 5.26866 52.0402 5.2872C51.7162 5.30574 51.4028 5.40784 51.1312 5.58333Z" fill="white"/>
</svg>
