<svg id="epSfUl4zWGg1" xmlns="http://www.w3.org/2000/svg" xmlns:xlink="http://www.w3.org/1999/xlink" viewBox="0 0 737 670" shape-rendering="geometricPrecision" text-rendering="geometricPrecision"><path id="epSfUl4zWGg2" d="M304.963,359.431C289.274,359.431,268.887,361.759,251.284,373.205C248.5,376.89,245.425,380.164,242.132,383.025C239.469,385.378,236.733,387.487,233.948,389.306C233.101,389.864,232.277,390.397,231.43,390.906C211.237,403.274,189.179,403.734,173.344,403.734L161.311,403.734L161.311,230.523L178.671,230.523C188.792,230.523,200.85,231.493,212.859,235.251C253.173,223.975,290.581,222.981,310.968,222.981L410.917,222.981C399.44,196.137,384.235,176.132,369.707,161.607C304.939,97.3464,210.075,94,172.666,94L1,94L1,540.233L212.738,540.233C228.549,540.233,243.27,538.875,256.926,536.474C265.618,534.971,273.899,533.006,281.719,530.727C324.357,518.311,354.26,495.954,372.395,477.33C409.028,440.666,423.047,397.963,427.769,359.431L304.963,359.431Z" transform="matrix(1 0 0 1 0 0.000001)" fill="rgb(255,123,172)" stroke="none" stroke-width="1"/><path id="epSfUl4zWGg3" d="M0.5,93.5L172.666,93.5C210.077,93.5,305.134,96.8358,370.06,161.252L370.061,161.253C384.628,175.818,399.872,195.875,411.377,222.785L411.674,223.481L310.968,223.481C290.597,223.481,253.242,224.475,212.994,235.733L212.851,235.773L212.71,235.728C200.766,231.99,188.763,231.023,178.671,231.023L161.811,231.023L161.811,403.234L173.344,403.234C189.178,403.234,211.107,402.767,231.169,390.48L231.172,390.478C232.011,389.974,232.827,389.445,233.673,388.888L233.675,388.887C236.437,387.083,239.154,384.989,241.801,382.651L241.804,382.648C245.071,379.809,248.122,376.561,250.885,372.903L250.938,372.833L251.012,372.785C268.733,361.262,289.235,358.931,304.963,358.931L428.334,358.931L428.265,359.492C423.534,398.1,409.483,440.917,372.751,477.681C354.565,496.356,324.591,518.764,281.859,531.207C274.022,533.491,265.724,535.46,257.012,536.966M1.5,94.5L1.5,539.733L212.738,539.733C228.52,539.733,243.212,538.377,256.839,535.982L256.84,535.981C265.513,534.481,273.776,532.521,281.579,530.247C324.122,517.859,353.952,495.553,372.037,476.982L372.041,476.977C408.397,440.59,422.424,398.239,427.203,359.931L304.963,359.931C289.334,359.931,269.097,362.249,251.63,373.576C248.84,377.26,245.76,380.535,242.463,383.4C239.784,385.767,237.028,387.891,234.222,389.725C233.374,390.283,232.545,390.82,231.689,391.334M369.354,161.961C304.743,97.857,210.072,94.5,172.666,94.5L1.5,94.5" transform="matrix(1 0 0 1 0 0.000001)" clip-rule="evenodd" fill="rgb(255,123,172)" fill-rule="evenodd" stroke="none" stroke-width="1"/><path id="epSfUl4zWGg4" d="M428.591,323.076C428.591,334.57,429.318,347.349,427.768,360.153L303.244,359.716C287.505,359.716,268.959,360.783,251.284,372.229C261.622,358.698,266.32,341.166,266.32,319.075C266.32,290.315,254.915,266.212,240.17,252.171C231.26,243.854,224.65,238.689,214.384,235.512C254.843,224.236,288.789,223.242,309.248,223.242L410.916,221.981C422.224,248.243,428.591,282.362,428.591,323.076Z" fill="rgb(255,123,172)" stroke="none" stroke-width="1"/><path id="epSfUl4zWGg5" d="M411.244,221.477L411.376,221.783C422.717,248.124,429.091,282.313,429.091,323.076C429.091,325.787,429.132,328.575,429.174,331.422C429.308,340.608,429.451,350.409,428.265,360.213L428.211,360.654L303.244,360.216C303.243,360.216,303.242,360.216,303.242,360.216C287.522,360.216,269.102,361.286,251.555,372.649L249.137,374.214L250.886,371.925C261.137,358.509,265.82,341.097,265.82,319.075C265.82,290.443,254.465,266.475,239.827,252.535C230.934,244.234,224.392,239.132,214.236,235.99L212.611,235.487L214.25,235.031C254.769,223.738,288.765,222.742,309.245,222.742C309.246,222.742,309.247,222.742,309.248,222.742L411.244,221.477ZM410.589,222.485L309.254,223.742L309.248,223.742C289.08,223.742,255.81,224.709,216.12,235.552C225.607,238.797,232.048,243.906,240.511,251.806L240.515,251.809C255.366,265.951,266.82,290.188,266.82,319.075C266.82,340.117,262.571,357.095,253.214,370.438C270.347,360.195,288.136,359.216,303.244,359.216L303.245,359.216L427.324,359.651C428.445,350.069,428.306,340.518,428.174,331.483C428.132,328.624,428.091,325.816,428.091,323.076C428.091,282.568,421.78,248.628,410.589,222.485Z" clip-rule="evenodd" fill="rgb(255,123,172)" fill-rule="evenodd" stroke="none" stroke-width="1"/><path id="epSfUl4zWGg6" d="M482.634,222.981L482.634,359.455L427.769,359.455C429.318,346.652,429.851,334.309,429.851,322.815C429.851,282.101,422.176,249.267,410.917,222.981L482.634,222.981Z" fill="rgb(41,171,226)" stroke="none" stroke-width="1"/><path id="epSfUl4zWGg7" d="M231.793,521.682C239.784,528.739,248.355,533.419,256.926,536.498C243.27,538.899,228.549,540.257,212.738,540.257L55.333,540.257C46.3744,512.637,44.0742,485.284,44.0742,461.472C44.0742,379.17,75.502,329.023,104.218,300.239C118.842,285.762,134.968,274.365,151.626,265.441C154.846,263.72,158.066,262.071,161.311,260.543C175.233,253.875,189.373,248.807,203.174,244.951C213.392,248.128,223.561,253.293,232.447,261.61C247.144,275.65,258.5,299.754,258.5,328.513C258.5,350.604,251.89,369.398,241.599,382.929C238.21,385.111,234.917,387.657,231.793,390.567C231.672,390.688,231.551,390.81,231.43,390.931C228.912,393.331,226.515,396.047,224.263,399.03C213.392,413.361,205.741,433.852,205.741,457.47C205.741,485.527,216.419,508.321,231.793,521.682Z" fill="rgb(229,109,172)" stroke="none" stroke-width="1"/><path id="epSfUl4zWGg8" d="M482.635,532.715L482.635,669.19L270.872,669.19C190.051,669.19,137.946,633.737,111.24,606.311C90.538,585.603,77.0759,562.978,68.4078,540.257C56.6406,509.388,53.7593,478.373,53.7593,451.772C53.7593,369.47,85.1871,319.323,113.903,290.539C128.527,276.063,144.653,264.665,161.311,255.742C178.308,246.6,195.838,240.004,212.859,235.251C223.077,238.428,233.246,243.593,242.132,251.91C256.829,265.951,268.185,290.054,268.185,318.814C268.185,340.905,261.575,359.698,251.285,373.229C247.895,375.411,244.602,377.957,241.478,380.867C238.839,383.365,236.321,386.202,233.948,389.33C223.077,403.661,215.426,424.152,215.426,447.771C215.426,475.851,226.104,498.621,241.478,511.982C254.214,523.234,268.403,528.399,281.72,530.751C292.155,532.594,302.058,532.715,310.29,532.715L482.635,532.715Z" fill="rgb(41,171,226)" stroke="none" stroke-width="1"/><path id="epSfUl4zWGg9" d="M168.067,106.011C168.067,106.011,322.304,102.627,372,215C372,215,258.332,132.556,168.067,137.62C168.067,137.62,151,138.34,151,120.244C151,106.995,168.067,106.011,168.067,106.011Z" fill="rgb(255,255,255)" stroke="none" stroke-width="1"/><path id="epSfUl4zWGg10" d="M399.005,240.227C401.135,245.322,400.589,250.403,397.787,251.574C394.984,252.745,390.986,249.564,388.856,244.468C386.726,239.372,387.272,234.292,390.075,233.121C392.877,231.949,396.876,235.131,399.005,240.227Z" fill="rgb(255,255,255)" stroke="none" stroke-width="1"/><path id="epSfUl4zWGg11" d="M459.876,220.783L472.917,200.773L477.901,202.74L459.815,229.023L455.008,227.127L457.84,203.848L443.886,222.74L439.061,220.836L443.8,189.288L448.784,191.256L444.697,214.753L458.794,195.206L463.005,196.868L459.876,220.783Z" fill="rgb(0,0,0)" stroke="none" stroke-width="1"/><path id="epSfUl4zWGg12" d="M482.5,235.54C479.299,234.79,476.939,233.176,475.42,230.692C473.9,228.212,473.535,225.295,474.319,221.94L474.466,221.319C474.99,219.072,475.895,217.169,477.173,215.604C478.451,214.04,479.989,212.951,481.788,212.333C483.586,211.715,485.445,211.632,487.371,212.08C490.433,212.796,492.574,214.327,493.788,216.671C495.002,219.016,495.191,221.974,494.354,225.551L493.879,227.59L479.179,224.153C478.896,226.045,479.175,227.658,480.008,228.996C480.841,230.334,482.086,231.194,483.737,231.578C486.052,232.121,488.155,231.623,490.048,230.093L492.163,233.327C490.949,234.462,489.501,235.223,487.824,235.611C486.146,235.999,484.37,235.981,482.5,235.54ZM486.402,216.128C485.015,215.804,483.782,216.027,482.704,216.799C481.626,217.568,480.766,218.793,480.125,220.471L489.754,222.721L489.841,222.348C490.124,220.633,489.973,219.246,489.385,218.198C488.796,217.146,487.805,216.456,486.402,216.128Z" fill="rgb(0,0,0)" stroke="none" stroke-width="1"/><path id="epSfUl4zWGg13" d="M519.041,229.637C518.578,233.195,517.417,235.92,515.554,237.816C513.692,239.712,511.373,240.481,508.591,240.119C505.906,239.772,503.946,238.532,502.698,236.403L502.121,238.845L497.461,238.238L501.687,205.722L506.834,206.389L505.299,218.201C507.011,216.645,509.118,216.027,511.633,216.355C514.427,216.716,516.489,218.039,517.816,220.323C519.14,222.604,519.562,225.608,519.079,229.336L519.041,229.637ZM513.952,228.525C514.276,226.041,514.08,224.123,513.367,222.766C512.655,221.409,511.463,220.625,509.797,220.406C507.565,220.116,505.872,220.885,504.715,222.717L503.486,232.159C504.145,234.269,505.597,235.468,507.84,235.758C509.45,235.969,510.77,235.528,511.803,234.443C512.836,233.357,513.522,231.601,513.865,229.177L513.952,228.525Z" transform="matrix(1 0 0 1 0.000001 0)" fill="rgb(0,0,0)" stroke="none" stroke-width="1"/><path id="epSfUl4zWGg14" d="M523.166,229.558C523.283,226.004,524.203,223.173,525.922,221.074C527.645,218.974,529.892,217.968,532.667,218.058C535.113,218.137,537.063,219.057,538.514,220.813L538.903,208.993L544.09,209.163L543.012,241.936L538.318,241.781L538.141,239.384C536.527,241.212,534.427,242.083,531.837,241.996C529.134,241.906,526.981,240.749,525.383,238.517C523.784,236.286,523.041,233.297,523.166,229.558ZM528.338,230.176C528.259,232.524,528.651,234.371,529.515,235.717C530.374,237.062,531.637,237.763,533.304,237.816C535.423,237.884,537.006,236.991,538.05,235.133L538.375,225.276C537.481,223.395,535.977,222.419,533.854,222.351C532.176,222.295,530.857,222.92,529.903,224.217C528.945,225.514,528.425,227.5,528.338,230.176Z" fill="rgb(0,0,0)" stroke="none" stroke-width="1"/><path id="epSfUl4zWGg15" d="M560.264,241.661C556.981,241.853,554.259,240.975,552.098,239.026C549.938,237.077,548.758,234.386,548.558,230.945L548.52,230.304C548.385,228.001,548.709,225.921,549.493,224.055C550.277,222.193,551.438,220.708,552.988,219.607C554.534,218.507,556.294,217.896,558.27,217.779C561.411,217.595,563.895,218.458,565.727,220.361C567.556,222.265,568.578,225.05,568.793,228.714L568.913,230.802L553.84,231.68C554.108,233.576,554.832,235.042,556.012,236.086C557.192,237.13,558.628,237.601,560.321,237.503C562.692,237.364,564.57,236.293,565.95,234.288L568.898,236.791C568.054,238.223,566.885,239.365,565.388,240.213C563.891,241.065,562.183,241.548,560.264,241.661ZM558.496,221.94C557.075,222.023,555.955,222.589,555.141,223.633C554.323,224.677,553.848,226.098,553.708,227.888L563.578,227.312L563.556,226.927C563.341,225.201,562.802,223.916,561.942,223.075C561.083,222.234,559.929,221.854,558.496,221.94Z" fill="rgb(0,0,0)" stroke="none" stroke-width="1"/><path id="epSfUl4zWGg16" d="M587.082,231.895C586.943,230.979,586.464,230.342,585.638,229.976C584.812,229.611,583.5,229.377,581.698,229.275C579.896,229.173,578.369,228.928,577.118,228.54C574.369,227.688,572.816,226.087,572.465,223.735C572.167,221.763,572.752,219.992,574.214,218.42C575.677,216.848,577.687,215.868,580.251,215.484C582.98,215.073,585.291,215.416,587.176,216.513C589.061,217.61,590.166,219.238,590.49,221.39L585.359,222.163C585.212,221.179,584.722,220.414,583.893,219.867C583.063,219.325,582.041,219.144,580.831,219.325C579.704,219.494,578.825,219.894,578.192,220.519C577.559,221.149,577.31,221.899,577.442,222.77C577.562,223.557,577.985,224.119,578.712,224.458C579.44,224.794,580.842,225.035,582.924,225.174C585.005,225.314,586.664,225.604,587.904,226.045C589.144,226.486,590.106,227.093,590.792,227.866C591.478,228.642,591.912,229.641,592.096,230.866C592.406,232.92,591.806,234.714,590.294,236.244C588.782,237.775,586.649,238.747,583.889,239.162C582.015,239.444,580.296,239.358,578.731,238.902C577.167,238.446,575.885,237.688,574.889,236.629C573.894,235.57,573.295,234.356,573.091,232.992L578.075,232.242C578.328,233.44,578.927,234.303,579.87,234.831C580.812,235.359,581.981,235.517,583.376,235.306C584.726,235.102,585.717,234.692,586.343,234.07C586.958,233.448,587.21,232.724,587.082,231.895Z" transform="matrix(1 0 0 1 0 0.000001)" fill="rgb(0,0,0)" stroke="none" stroke-width="1"/><path id="epSfUl4zWGg17" d="M592.435,207.644C592.262,206.867,592.364,206.166,592.741,205.541C593.118,204.915,593.766,204.5,594.683,204.297C595.599,204.093,596.364,204.191,596.982,204.591C597.601,204.99,597.993,205.582,598.166,206.359C598.336,207.124,598.23,207.814,597.842,208.432C597.454,209.05,596.805,209.464,595.885,209.668C594.969,209.872,594.207,209.777,593.6,209.382C592.997,208.99,592.609,208.409,592.435,207.644ZM604.172,234.839L599.109,235.973L594.06,213.433L599.124,212.299L604.172,234.839Z" fill="rgb(0,0,0)" stroke="none" stroke-width="1"/><path id="epSfUl4zWGg18" d="M606.849,222.351C605.786,218.925,605.74,215.94,606.717,213.396C607.693,210.852,609.511,209.163,612.176,208.334C614.691,207.554,616.942,207.814,618.929,209.121L618.461,206.83L622.929,205.443L629.576,226.829C630.477,229.724,630.284,232.287,629.003,234.518C627.721,236.75,625.549,238.34,622.491,239.29C620.874,239.791,619.189,239.946,617.436,239.754C615.682,239.561,614.238,239.045,613.096,238.204L614.517,234.499C616.602,235.834,618.759,236.154,620.987,235.464C622.631,234.952,623.792,234.104,624.467,232.92C625.142,231.733,625.21,230.278,624.674,228.552L624.211,227.063C623.276,229.098,621.62,230.481,619.241,231.22C616.659,232.023,614.227,231.654,611.954,230.108C609.68,228.567,607.976,225.981,606.849,222.351ZM611.916,221.247C612.606,223.463,613.598,225.065,614.898,226.056C616.199,227.048,617.647,227.293,619.253,226.795C621.251,226.173,622.465,224.858,622.899,222.845L619.882,213.139C618.423,211.76,616.697,211.379,614.698,212.001C613.066,212.506,611.999,213.546,611.498,215.118C610.996,216.69,611.136,218.733,611.916,221.247Z" fill="rgb(0,0,0)" stroke="none" stroke-width="1"/><path id="epSfUl4zWGg19" d="M631.838,201.76L633.079,204.127C633.784,201.542,635.397,199.676,637.927,198.53C642.308,196.544,645.679,198.04,648.031,203.023L654.335,216.924L649.607,219.065L643.424,205.435C642.817,204.101,642.082,203.242,641.215,202.861C640.348,202.48,639.258,202.59,637.95,203.181C636.042,204.044,635.016,205.552,634.862,207.697L641.652,222.668L636.924,224.809L627.382,203.773L631.838,201.76Z" fill="rgb(0,0,0)" stroke="none" stroke-width="1"/><path id="epSfUl4zWGg20" d="M670.244,207.927C667.481,209.706,664.68,210.279,661.841,209.645C659.002,209.012,656.649,207.244,654.783,204.35L654.436,203.811C653.188,201.873,652.445,199.898,652.208,197.893C651.97,195.888,652.257,194.022,653.064,192.3C653.867,190.581,655.103,189.183,656.766,188.112C659.409,186.408,661.999,185.937,664.529,186.695C667.059,187.452,669.317,189.375,671.308,192.462L672.442,194.222L659.752,202.397C660.917,203.916,662.27,204.84,663.812,205.168C665.354,205.496,666.836,205.202,668.261,204.286C670.259,202.997,671.368,201.142,671.583,198.719L675.379,199.446C675.349,201.108,674.893,202.676,674.007,204.154C673.113,205.627,671.862,206.886,670.244,207.927ZM659.005,191.625C657.81,192.398,657.113,193.438,656.917,194.75C656.721,196.061,657.003,197.531,657.761,199.156L666.071,193.804L665.863,193.479C664.827,192.081,663.726,191.229,662.564,190.92C661.399,190.611,660.212,190.845,659.005,191.625Z" fill="rgb(0,0,0)" stroke="none" stroke-width="1"/><path id="epSfUl4zWGg21" d="M680.044,176.333C679.456,176.699,678.89,177.121,678.347,177.604C676.564,179.175,675.964,180.917,676.553,182.832L687.004,194.682L683.113,198.112L667.832,180.785L671.549,177.509L673.355,179.364C672.967,177.031,673.608,175.131,675.271,173.661C675.825,173.171,676.353,172.843,676.847,172.67L680.044,176.333Z" fill="rgb(0,0,0)" stroke="none" stroke-width="1"/><path id="epSfUl4zWGg22" d="M528.31,622.31C557.657,604.065,574,580.025,574,555C574,529.975,557.657,505.935,528.31,487.69C499.096,469.528,458.174,458,412.5,458C366.826,458,325.904,469.528,296.69,487.69C267.343,505.935,251,529.975,251,555C251,580.025,267.343,604.065,296.69,622.31C325.904,640.472,366.826,652,412.5,652C458.174,652,499.096,640.472,528.31,622.31ZM412.5,661C506.665,661,583,613.542,583,555C583,496.458,506.665,449,412.5,449C318.335,449,242,496.458,242,555C242,613.542,318.335,661,412.5,661Z" clip-rule="evenodd" fill="rgb(0,0,0)" fill-rule="evenodd" stroke="none" stroke-width="1"/><path id="epSfUl4zWGg23" d="M528.31,592.31C557.657,574.065,574,550.025,574,525C574,499.975,557.657,475.935,528.31,457.69C499.096,439.528,458.174,428,412.5,428C366.826,428,325.904,439.528,296.69,457.69C267.343,475.935,251,499.975,251,525C251,550.025,267.343,574.065,296.69,592.31C325.904,610.472,366.826,622,412.5,622C458.174,622,499.096,610.472,528.31,592.31ZM412.5,631C506.665,631,583,583.542,583,525C583,466.458,506.665,419,412.5,419C318.335,419,242,466.458,242,525C242,583.542,318.335,631,412.5,631Z" clip-rule="evenodd" fill="rgb(0,0,0)" fill-rule="evenodd" stroke="none" stroke-width="1"/><path id="epSfUl4zWGg24" d="M528.31,552.31C557.657,534.065,574,510.025,574,485C574,459.975,557.657,435.935,528.31,417.69C499.096,399.528,458.174,388,412.5,388C366.826,388,325.904,399.528,296.69,417.69C267.343,435.935,251,459.975,251,485C251,510.025,267.343,534.065,296.69,552.31C325.904,570.472,366.826,582,412.5,582C458.174,582,499.096,570.472,528.31,552.31ZM412.5,591C506.665,591,583,543.542,583,485C583,426.458,506.665,379,412.5,379C318.335,379,242,426.458,242,485C242,543.542,318.335,591,412.5,591Z" transform="matrix(1 0 0 1 0 4)" clip-rule="evenodd" fill="rgb(0,0,0)" fill-rule="evenodd" stroke="none" stroke-width="1"/><path id="epSfUl4zWGg25" d="M528.31,522.31C557.657,504.065,574,480.025,574,455C574,429.975,557.657,405.935,528.31,387.69C499.096,369.528,458.174,358,412.5,358C366.826,358,325.904,369.528,296.69,387.69C267.343,405.935,251,429.975,251,455C251,480.025,267.343,504.065,296.69,522.31C325.904,540.472,366.826,552,412.5,552C458.174,552,499.096,540.472,528.31,522.31ZM412.5,561C506.665,561,583,513.542,583,455C583,396.458,506.665,349,412.5,349C318.335,349,242,396.458,242,455C242,513.542,318.335,561,412.5,561Z" transform="matrix(1 0 0 1 0 1)" clip-rule="evenodd" fill="rgb(0,0,0)" fill-rule="evenodd" stroke="none" stroke-width="1"/><path id="epSfUl4zWGg26" d="M366.494,118.186C367.727,119.562,368.534,121.3,368.907,123.395C369.28,125.495,369.235,127.786,368.768,130.278C368.289,132.837,367.282,134.993,365.752,136.749C364.221,138.506,362.272,139.712,359.912,140.379C357.548,141.043,354.924,141.125,352.032,140.628L349.638,140.179C345.019,139.312,341.622,137.533,339.439,134.835C337.26,132.136,336.54,128.812,337.283,124.85C337.92,121.45,339.27,118.91,341.332,117.225C343.394,115.54,346.045,114.794,349.283,114.979L348.307,120.184C344.518,120.082,342.275,121.869,341.585,125.547C341.14,127.926,341.656,129.893,343.134,131.454C344.616,133.014,347.006,134.122,350.313,134.786L352.661,135.227C355.96,135.845,358.652,135.63,360.737,134.578C362.822,133.527,364.096,131.767,364.564,129.29C365.073,126.576,364.82,124.53,363.802,123.154L357.819,122.031L356.639,128.325L352.609,127.571L354.78,115.989L366.494,118.186Z" fill="rgb(0,0,0)" stroke="none" stroke-width="1"/><path id="epSfUl4zWGg27" d="M367.218,99.7851L364.285,105.043L374.728,110.867L372.097,115.582L344.944,100.437L350.271,90.8899C352.02,87.7577,354.071,85.7337,356.428,84.814C358.784,83.8943,361.295,84.1808,363.957,85.662C365.774,86.676,367.048,87.9612,367.787,89.5217C368.523,91.0821,368.787,92.8272,368.572,94.7608L383.279,94.9719L383.52,95.1076L380.7,100.158L367.218,99.7851ZM360.477,102.921L363.18,98.0739C364.066,96.4833,364.36,95.0171,364.059,93.6753C363.757,92.3335,362.909,91.2743,361.518,90.4979C360.062,89.6875,358.709,89.4727,357.45,89.8534C356.194,90.2378,355.093,91.2404,354.154,92.8687L351.376,97.8478L360.477,102.921Z" fill="rgb(0,0,0)" stroke="none" stroke-width="1"/><path id="epSfUl4zWGg28" d="M391.848,76.0846L383.516,84.7801L387,91.606L383.117,95.6617L368.786,65.6816L372.138,62.1801L402.729,75.1875L398.831,79.2582L391.848,76.0846ZM381.42,80.6754L387.652,74.1698L375.222,68.5048L381.42,80.6754Z" transform="matrix(1 0 0 1 0.000001 0)" fill="rgb(0,0,0)" stroke="none" stroke-width="1"/><path id="epSfUl4zWGg29" d="M402.474,61.6072L409.071,71.064L404.641,74.1547L386.857,48.66L396.615,41.8567C399.465,39.8703,402.244,39.0336,404.954,39.3502C407.665,39.6668,409.874,41.0463,411.575,43.4887C413.32,45.9915,413.856,48.5093,413.185,51.0422C412.514,53.575,410.7,55.8742,407.748,57.9322L402.474,61.6072ZM399.981,58.0377L405.305,54.3251C406.881,53.2245,407.827,52.0184,408.136,50.6992C408.449,49.38,408.118,48.0193,407.137,46.6171C406.176,45.2414,404.988,44.431,403.574,44.1973C402.161,43.9599,400.709,44.3443,399.22,45.3469L393.772,49.1463L399.981,58.0377Z" fill="rgb(0,0,0)" stroke="none" stroke-width="1"/><path id="epSfUl4zWGg30" d="M449.073,48.4754L444.22,50.8009L438.252,38.3664L425.716,44.3783L431.685,56.8128L426.813,59.1497L413.365,31.1221L418.236,28.7852L423.835,40.4508L436.371,34.4389L430.772,22.7733L435.624,20.4478L449.073,48.4754Z" fill="rgb(0,0,0)" stroke="none" stroke-width="1"/><path id="epSfUl4zWGg31" d="M459.829,44.8117L454.766,46.6398L444.209,17.4023L449.272,15.5742L459.829,44.8117Z" fill="rgb(0,0,0)" stroke="none" stroke-width="1"/><path id="epSfUl4zWGg32" d="M479.091,30.7376C478.733,29.4184,477.994,28.5289,476.874,28.0653C475.755,27.6017,473.885,27.3341,471.268,27.2624C468.652,27.1908,466.51,26.9006,464.836,26.3955C461.635,25.4193,459.66,23.5536,458.913,20.7908C458.257,18.3747,458.702,16.1132,460.248,14.0138C461.794,11.9144,464.143,10.4368,467.287,9.58125C469.376,9.01587,471.34,8.89526,473.183,9.2194C475.027,9.54355,476.611,10.2936,477.93,11.4621C479.25,12.6305,480.147,14.0779,480.615,15.8117L475.419,17.2214C474.993,15.6572,474.171,14.5641,472.946,13.9422C471.721,13.3203,470.197,13.26,468.373,13.7575C466.669,14.2211,465.443,14.941,464.701,15.9248C463.958,16.9085,463.762,18.0506,464.116,19.3585C464.414,20.4591,465.172,21.2355,466.39,21.6954C467.607,22.1552,469.477,22.4153,472,22.4756C474.522,22.5359,476.614,22.8148,478.269,23.3199C479.925,23.8212,481.24,24.5562,482.209,25.5249C483.182,26.4935,483.876,27.7449,484.29,29.2827C484.969,31.7817,484.551,34.0319,483.035,36.0258C481.519,38.0234,479.118,39.467,475.834,40.3566C473.662,40.9445,471.559,41.084,469.519,40.7749C467.479,40.4659,465.764,39.7384,464.369,38.6001C462.974,37.4581,462.024,35.9466,461.511,34.0658L466.725,32.6524C467.189,34.356,468.109,35.5207,469.489,36.1502C470.869,36.7796,472.61,36.806,474.714,36.2368C476.528,35.7469,477.791,35.0081,478.507,34.0243C479.223,33.0406,479.419,31.9475,479.091,30.7376Z" fill="rgb(0,0,0)" stroke="none" stroke-width="1"/><path id="epSfUl4zWGg33" d="M508.163,6.28322L498.594,7.85496L502.922,34.2316L497.632,35.0986L493.304,8.72187L483.822,10.2785L483.117,5.98168L507.458,1.99013L508.163,6.28322Z" fill="rgb(0,0,0)" stroke="none" stroke-width="1"/><path id="epSfUl4zWGg34" d="M533.05,17.3043L520.311,18.1976L520.982,27.7374L535.874,26.6933L536.176,30.9939L515.896,32.4149L513.721,1.4059L533.85,0L534.155,4.34586L519.414,5.37861L520.013,13.9384L532.753,13.0451L533.05,17.3043Z" fill="rgb(0,0,0)" stroke="none" stroke-width="1"/><path id="epSfUl4zWGg35" d="M679.409,223.52C711.533,203.53,730,176.819,730,148.5C730,120.181,711.533,93.4696,679.409,73.4795C647.388,53.5533,602.714,41,553,41C503.286,41,458.612,53.5533,426.591,73.4795C394.467,93.4696,376,120.181,376,148.5C376,176.819,394.467,203.53,426.591,223.52C458.612,243.447,503.286,256,553,256C602.714,256,647.388,243.447,679.409,223.52ZM553,263C654.62,263,737,211.737,737,148.5C737,85.2634,654.62,34,553,34C451.38,34,369,85.2634,369,148.5C369,211.737,451.38,263,553,263Z" clip-rule="evenodd" fill="rgb(0,0,0)" fill-rule="evenodd" stroke="none" stroke-width="1"/><rect id="epSfUl4zWGg36" style="mix-blend-mode:difference" width="97.31973" height="509.4945" rx="0" ry="0" transform="matrix(0.251822 0 0 1.125041 0.442032 95.6617)" fill="rgb(255,255,255)" stroke="none" stroke-width="0"/><script><![CDATA[!function(t,n){"object"==typeof exports&&"undefined"!=typeof module?module.exports=n():"function"==typeof define&&define.amd?define(n):(t="undefined"!=typeof globalThis?globalThis:t||self).__SVGATOR_PLAYER__=n()}(this,(function(){"use strict";function t(n){return(t="function"==typeof Symbol&&"symbol"==typeof Symbol.iterator?function(t){return typeof t}:function(t){return t&&"function"==typeof Symbol&&t.constructor===Symbol&&t!==Symbol.prototype?"symbol":typeof t})(n)}function n(t,n){if(!(t instanceof n))throw new TypeError("Cannot call a class as a function")}function r(t,n){for(var r=0;r<n.length;r++){var e=n[r];e.enumerable=e.enumerable||!1,e.configurable=!0,"value"in e&&(e.writable=!0),Object.defineProperty(t,e.key,e)}}function e(t,n,e){return n&&r(t.prototype,n),e&&r(t,e),t}function i(t){return(i=Object.setPrototypeOf?Object.getPrototypeOf:function(t){return t.__proto__||Object.getPrototypeOf(t)})(t)}function o(t,n){return(o=Object.setPrototypeOf||function(t,n){return t.__proto__=n,t})(t,n)}function u(t,n){return!n||"object"!=typeof n&&"function"!=typeof n?function(t){if(void 0===t)throw new ReferenceError("this hasn't been initialised - super() hasn't been called");return t}(t):n}function a(t){var n=function(){if("undefined"==typeof Reflect||!Reflect.construct)return!1;if(Reflect.construct.sham)return!1;if("function"==typeof Proxy)return!0;try{return Boolean.prototype.valueOf.call(Reflect.construct(Boolean,[],(function(){}))),!0}catch(t){return!1}}();return function(){var r,e=i(t);if(n){var o=i(this).constructor;r=Reflect.construct(e,arguments,o)}else r=e.apply(this,arguments);return u(this,r)}}function l(t,n,r){return(l="undefined"!=typeof Reflect&&Reflect.get?Reflect.get:function(t,n,r){var e=function(t,n){for(;!Object.prototype.hasOwnProperty.call(t,n)&&null!==(t=i(t)););return t}(t,n);if(e){var o=Object.getOwnPropertyDescriptor(e,n);return o.get?o.get.call(r):o.value}})(t,n,r||t)}var f=s(Math.pow(10,-6));function s(t){var n=arguments.length>1&&void 0!==arguments[1]?arguments[1]:6;if(Number.isInteger(t))return t;var r=Math.pow(10,n);return Math.round((+t+Number.EPSILON)*r)/r}function c(t,n){var r=arguments.length>2&&void 0!==arguments[2]?arguments[2]:f;return Math.abs(t-n)<r}var h=Math.PI/180;function v(t){return t}function y(t,n,r){var e=1-r;return 3*r*e*(t*e+n*r)+r*r*r}function d(){var t=arguments.length>0&&void 0!==arguments[0]?arguments[0]:0,n=arguments.length>1&&void 0!==arguments[1]?arguments[1]:0,r=arguments.length>2&&void 0!==arguments[2]?arguments[2]:1,e=arguments.length>3&&void 0!==arguments[3]?arguments[3]:1;return t<0||t>1||r<0||r>1?null:c(t,n)&&c(r,e)?v:function(i){if(i<=0)return t>0?i*n/t:0===n&&r>0?i*e/r:0;if(i>=1)return r<1?1+(i-1)*(e-1)/(r-1):1===r&&t<1?1+(i-1)*(n-1)/(t-1):1;for(var o,u=0,a=1;u<a;){var l=y(t,r,o=(u+a)/2);if(c(i,l))break;l<i?u=o:a=o}return y(n,e,o)}}function g(){return 1}function p(t){return 1===t?1:0}function m(){var t=arguments.length>0&&void 0!==arguments[0]?arguments[0]:1,n=arguments.length>1&&void 0!==arguments[1]?arguments[1]:0;if(1===t){if(0===n)return p;if(1===n)return g}var r=1/t;return function(t){return t>=1?1:(t+=n*r)-t%r}}function b(t,n,r){return t>=.5?r:n}function w(t,n,r){return 0===t||n===r?n:t*(r-n)+n}function x(t,n,r){var e=w(t,n,r);return e<=0?0:e}function k(t,n,r){return 0===t?n:1===t?r:{x:w(t,n.x,r.x),y:w(t,n.y,r.y)}}function A(t,n,r){var e=function(t,n,r){return Math.round(w(t,n,r))}(t,n,r);return e<=0?0:e>=255?255:e}function S(t,n,r){return 0===t?n:1===t?r:{r:A(t,n.r,r.r),g:A(t,n.g,r.g),b:A(t,n.b,r.b),a:w(t,null==n.a?1:n.a,null==r.a?1:r.a)}}function _(t,n,r){if(0===t)return n;if(1===t)return r;var e=n.length;if(e!==r.length)return b(t,n,r);for(var i=[],o=0;o<e;o++)i.push(S(t,n[o],r[o]));return i}function O(t,n){for(var r=[],e=0;e<t;e++)r.push(n);return r}function M(t,n){if(--n<=0)return t;var r=(t=Object.assign([],t)).length;do{for(var e=0;e<r;e++)t.push(t[e])}while(--n>0);return t}var j,P=function(){function t(r){n(this,t),this.list=r,this.length=r.length}return e(t,[{key:"setAttribute",value:function(t,n){for(var r=this.list,e=0;e<this.length;e++)r[e].setAttribute(t,n)}},{key:"removeAttribute",value:function(t){for(var n=this.list,r=0;r<this.length;r++)n[r].removeAttribute(t)}},{key:"style",value:function(t,n){for(var r=this.list,e=0;e<this.length;e++)r[e].style[t]=n}}]),t}(),I=/-./g,E=function(t,n){return n.toUpperCase()};function F(t){return"function"==typeof t?t:b}function N(t){return t?"function"==typeof t?t:Array.isArray(t)?function(t){var n=arguments.length>1&&void 0!==arguments[1]?arguments[1]:v;if(!Array.isArray(t))return n;switch(t.length){case 1:return m(t[0])||n;case 2:return m(t[0],t[1])||n;case 4:return d(t[0],t[1],t[2],t[3])||n}return n}(t,null):function(t,n){var r=arguments.length>2&&void 0!==arguments[2]?arguments[2]:v;switch(t){case"linear":return v;case"steps":return m(n.steps||1,n.jump||0)||r;case"bezier":case"cubic-bezier":return d(n.x1||0,n.y1||0,n.x2||0,n.y2||0)||r}return r}(t.type,t.value,null):null}function B(t,n,r){var e=arguments.length>3&&void 0!==arguments[3]&&arguments[3],i=n.length-1;if(t<=n[0].t)return e?[0,0,n[0].v]:n[0].v;if(t>=n[i].t)return e?[i,1,n[i].v]:n[i].v;var o,u=n[0],a=null;for(o=1;o<=i;o++){if(!(t>n[o].t)){a=n[o];break}u=n[o]}return null==a?e?[i,1,n[i].v]:n[i].v:u.t===a.t?e?[o,1,a.v]:a.v:(t=(t-u.t)/(a.t-u.t),u.e&&(t=u.e(t)),e?[o,t,r(t,u.v,a.v)]:r(t,u.v,a.v))}function R(t,n){var r=arguments.length>2&&void 0!==arguments[2]?arguments[2]:null;return t&&t.length?"function"!=typeof n?null:("function"!=typeof r&&(r=null),function(e){var i=B(e,t,n);return null!=i&&r&&(i=r(i)),i}):null}function q(t,n){return t.t-n.t}function T(n,r,e,i,o){var u,a="@"===e[0],l="#"===e[0],f=j[e],s=b;switch(a?(u=e.substr(1),e=u.replace(I,E)):l&&(e=e.substr(1)),t(f)){case"function":if(s=f(i,o,B,N,e,a,r,n),l)return s;break;case"string":s=R(i,F(f));break;case"object":if((s=R(i,F(f.i),f.f))&&"function"==typeof f.u)return f.u(r,s,e,a,n)}return s?function(t,n,r){var e=arguments.length>3&&void 0!==arguments[3]&&arguments[3];if(e)return t instanceof P?function(e){return t.style(n,r(e))}:function(e){return t.style[n]=r(e)};if(Array.isArray(n)){var i=n.length;return function(e){var o=r(e);if(null==o)for(var u=0;u<i;u++)t[u].removeAttribute(n);else for(var a=0;a<i;a++)t[a].setAttribute(n,o)}}return function(e){var i=r(e);null==i?t.removeAttribute(n):t.setAttribute(n,i)}}(r,e,s,a):null}function L(n,r,e,i){if(!i||"object"!==t(i))return null;var o=null,u=null;return Array.isArray(i)?u=function(t){if(!t||!t.length)return null;for(var n=0;n<t.length;n++)t[n].e&&(t[n].e=N(t[n].e));return t.sort(q)}(i):(u=i.keys,o=i.data||null),u?T(n,r,e,u,o):null}function C(t,n,r){if(!r)return null;var e=[];for(var i in r)if(r.hasOwnProperty(i)){var o=L(t,n,i,r[i]);o&&e.push(o)}return e.length?e:null}function z(t,n){if(!n.duration||n.duration<0)return null;var r=function(t,n){if(!n)return null;var r=[];if(Array.isArray(n))for(var e=n.length,i=0;i<e;i++){var o=n[i];if(2===o.length){var u=null;if("string"==typeof o[0])u=t.getElementById(o[0]);else if(Array.isArray(o[0])){u=[];for(var a=0;a<o[0].length;a++)if("string"==typeof o[0][a]){var l=t.getElementById(o[0][a]);l&&u.push(l)}u=u.length?1===u.length?u[0]:new P(u):null}if(u){var f=C(t,u,o[1]);f&&(r=r.concat(f))}}}else for(var s in n)if(n.hasOwnProperty(s)){var c=t.getElementById(s);if(c){var h=C(t,c,n[s]);h&&(r=r.concat(h))}}return r.length?r:null}(t,n.elements);return r?function(t,n){var r=arguments.length>2&&void 0!==arguments[2]?arguments[2]:1/0,e=arguments.length>3&&void 0!==arguments[3]?arguments[3]:1,i=arguments.length>4&&void 0!==arguments[4]&&arguments[4],o=arguments.length>5&&void 0!==arguments[5]?arguments[5]:1,u=t.length,a=e>0?n:0;i&&r%2==0&&(a=n-a);var l=null;return function(f,s){var c=f%n,h=1+(f-c)/n;s*=e,i&&h%2==0&&(s=-s);var v=!1;if(h>r)c=a,v=!0,-1===o&&(c=e>0?0:n);else if(s<0&&(c=n-c),c===l)return!1;l=c;for(var y=0;y<u;y++)t[y](c);return v}}(r,n.duration,n.iterations||1/0,n.direction||1,!!n.alternate,n.fill||1):null}Number.isInteger||(Number.isInteger=function(t){return"number"==typeof t&&isFinite(t)&&Math.floor(t)===t}),Number.EPSILON||(Number.EPSILON=2220446049250313e-31);var D=function(){function t(r,e){var i=arguments.length>2&&void 0!==arguments[2]?arguments[2]:{};n(this,t),this._id=0,this._running=!1,this._rollingBack=!1,this._animations=r,this.duration=e.duration,this.alternate=e.alternate,this.fill=e.fill,this.iterations=e.iterations,this.direction=i.direction||1,this.speed=i.speed||1,this.fps=i.fps||100,this.offset=i.offset||0,this.rollbackStartOffset=0}return e(t,[{key:"_rollback",value:function(){var t=this,n=1/0,r=null;this.rollbackStartOffset=this.offset,this._rollingBack||(this._rollingBack=!0,this._running=!0);this._id=window.requestAnimationFrame((function e(i){if(t._rollingBack){null==r&&(r=i);var o=i-r,u=t.rollbackStartOffset-o,a=Math.round(u*t.speed);if(a>t.duration&&n!=1/0){var l=!!t.alternate&&a/t.duration%2>1,f=a%t.duration;a=(f+=l?t.duration:0)||t.duration}var s=t.fps?1e3/t.fps:0,c=Math.max(0,a);if(c<n-s){t.offset=c,n=c;for(var h=t._animations,v=h.length,y=0;y<v;y++)h[y](c,t.direction)}var d=!1;if(t.iterations>0&&-1===t.fill){var g=t.iterations*t.duration,p=g==a;a=p?0:a,t.offset=p?0:t.offset,d=a>g}a>0&&t.offset>=a&&!d?t._id=window.requestAnimationFrame(e):t.stop()}}))}},{key:"_start",value:function(){var t=this,n=arguments.length>0&&void 0!==arguments[0]?arguments[0]:0,r=-1/0,e=null,i={},o=function o(u){t._running=!0,null==e&&(e=u);var a=Math.round((u-e+n)*t.speed),l=t.fps?1e3/t.fps:0;if(a>r+l&&!t._rollingBack){t.offset=a,r=a;for(var f=t._animations,s=f.length,c=0,h=0;h<s;h++)i[h]?c++:(i[h]=f[h](a,t.direction),i[h]&&c++);if(c===s)return void t._stop()}t._id=window.requestAnimationFrame(o)};this._id=window.requestAnimationFrame(o)}},{key:"_stop",value:function(){this._id&&window.cancelAnimationFrame(this._id),this._running=!1,this._rollingBack=!1}},{key:"play",value:function(){!this._rollingBack&&this._running||(this._rollingBack=!1,this.rollbackStartOffset>this.duration&&(this.offset=this.rollbackStartOffset-(this.rollbackStartOffset-this.offset)%this.duration,this.rollbackStartOffset=0),this._start(this.offset))}},{key:"stop",value:function(){this._stop(),this.offset=0,this.rollbackStartOffset=0;var t=this.direction,n=this._animations;window.requestAnimationFrame((function(){for(var r=0;r<n.length;r++)n[r](0,t)}))}},{key:"reachedToEnd",value:function(){return this.iterations>0&&this.offset>=this.iterations*this.duration}},{key:"restart",value:function(){this._stop(),this.offset=0,this._start()}},{key:"pause",value:function(){this._stop()}},{key:"reverse",value:function(){this.direction=-this.direction}}],[{key:"build",value:function(n,r){return(n=function(t,n){if(j=n,!t||!t.root||!Array.isArray(t.animations))return null;for(var r=document.getElementsByTagName("svg"),e=!1,i=0;i<r.length;i++)if(r[i].id===t.root&&!r[i].svgatorAnimation){(e=r[i]).svgatorAnimation=!0;break}if(!e)return null;var o=t.animations.map((function(t){return z(e,t)})).filter((function(t){return!!t}));return o.length?{element:e,animations:o,animationSettings:t.animationSettings,options:t.options||void 0}:null}(n,r))?{el:n.element,options:n.options||{},player:new t(n.animations,n.animationSettings,n.options)}:null}}]),t}();function Q(t){return s(t)+""}function U(t){var n=arguments.length>1&&void 0!==arguments[1]?arguments[1]:" ";return t&&t.length?t.map(Q).join(n):""}function V(t){return t?null==t.a||t.a>=1?"rgb("+t.r+","+t.g+","+t.b+")":"rgba("+t.r+","+t.g+","+t.b+","+t.a+")":"transparent"}!function(){for(var t=0,n=["ms","moz","webkit","o"],r=0;r<n.length&&!window.requestAnimationFrame;++r)window.requestAnimationFrame=window[n[r]+"RequestAnimationFrame"],window.cancelAnimationFrame=window[n[r]+"CancelAnimationFrame"]||window[n[r]+"CancelRequestAnimationFrame"];window.requestAnimationFrame||(window.requestAnimationFrame=function(n){var r=Date.now(),e=Math.max(0,16-(r-t)),i=window.setTimeout((function(){n(r+e)}),e);return t=r+e,i},window.cancelAnimationFrame=window.clearTimeout)}();var G={f:null,i:function(t,n,r){return 0===t?n:1===t?r:{x:x(t,n.x,r.x),y:x(t,n.y,r.y)}},u:function(t,n){return function(r){var e=n(r);t.setAttribute("rx",Q(e.x)),t.setAttribute("ry",Q(e.y))}}},H={f:null,i:function(t,n,r){return 0===t?n:1===t?r:{width:x(t,n.width,r.width),height:x(t,n.height,r.height)}},u:function(t,n){return function(r){var e=n(r);t.setAttribute("width",Q(e.width)),t.setAttribute("height",Q(e.height))}}},Y=Math.sin,Z=Math.cos,J=Math.acos,K=Math.asin,W=Math.tan,X=Math.atan2,$=Math.PI/180,tt=180/Math.PI,nt=Math.sqrt,rt=function(){function t(){var r=arguments.length>0&&void 0!==arguments[0]?arguments[0]:1,e=arguments.length>1&&void 0!==arguments[1]?arguments[1]:0,i=arguments.length>2&&void 0!==arguments[2]?arguments[2]:0,o=arguments.length>3&&void 0!==arguments[3]?arguments[3]:1,u=arguments.length>4&&void 0!==arguments[4]?arguments[4]:0,a=arguments.length>5&&void 0!==arguments[5]?arguments[5]:0;n(this,t),this.m=[r,e,i,o,u,a],this.i=null,this.w=null,this.s=null}return e(t,[{key:"determinant",get:function(){var t=this.m;return t[0]*t[3]-t[1]*t[2]}},{key:"isIdentity",get:function(){if(null===this.i){var t=this.m;this.i=1===t[0]&&0===t[1]&&0===t[2]&&1===t[3]&&0===t[4]&&0===t[5]}return this.i}},{key:"point",value:function(t,n){var r=this.m;return{x:r[0]*t+r[2]*n+r[4],y:r[1]*t+r[3]*n+r[5]}}},{key:"translateSelf",value:function(){var t=arguments.length>0&&void 0!==arguments[0]?arguments[0]:0,n=arguments.length>1&&void 0!==arguments[1]?arguments[1]:0;if(!t&&!n)return this;var r=this.m;return r[4]+=r[0]*t+r[2]*n,r[5]+=r[1]*t+r[3]*n,this.w=this.s=this.i=null,this}},{key:"rotateSelf",value:function(){var t=arguments.length>0&&void 0!==arguments[0]?arguments[0]:0;if(t%=360){var n=Y(t*=$),r=Z(t),e=this.m,i=e[0],o=e[1];e[0]=i*r+e[2]*n,e[1]=o*r+e[3]*n,e[2]=e[2]*r-i*n,e[3]=e[3]*r-o*n,this.w=this.s=this.i=null}return this}},{key:"scaleSelf",value:function(){var t=arguments.length>0&&void 0!==arguments[0]?arguments[0]:1,n=arguments.length>1&&void 0!==arguments[1]?arguments[1]:1;if(1!==t||1!==n){var r=this.m;r[0]*=t,r[1]*=t,r[2]*=n,r[3]*=n,this.w=this.s=this.i=null}return this}},{key:"skewSelf",value:function(t,n){if(n%=360,(t%=360)||n){var r=this.m,e=r[0],i=r[1],o=r[2],u=r[3];t&&(t=W(t*$),r[2]+=e*t,r[3]+=i*t),n&&(n=W(n*$),r[0]+=o*n,r[1]+=u*n),this.w=this.s=this.i=null}return this}},{key:"resetSelf",value:function(){var t=arguments.length>0&&void 0!==arguments[0]?arguments[0]:1,n=arguments.length>1&&void 0!==arguments[1]?arguments[1]:0,r=arguments.length>2&&void 0!==arguments[2]?arguments[2]:0,e=arguments.length>3&&void 0!==arguments[3]?arguments[3]:1,i=arguments.length>4&&void 0!==arguments[4]?arguments[4]:0,o=arguments.length>5&&void 0!==arguments[5]?arguments[5]:0,u=this.m;return u[0]=t,u[1]=n,u[2]=r,u[3]=e,u[4]=i,u[5]=o,this.w=this.s=this.i=null,this}},{key:"recomposeSelf",value:function(){var t=arguments.length>0&&void 0!==arguments[0]?arguments[0]:null,n=arguments.length>1&&void 0!==arguments[1]?arguments[1]:null,r=arguments.length>2&&void 0!==arguments[2]?arguments[2]:null,e=arguments.length>3&&void 0!==arguments[3]?arguments[3]:null,i=arguments.length>4&&void 0!==arguments[4]?arguments[4]:null;return this.isIdentity||this.resetSelf(),t&&(t.x||t.y)&&this.translateSelf(t.x,t.y),n&&this.rotateSelf(n),r&&(r.x&&this.skewSelf(r.x,0),r.y&&this.skewSelf(0,r.y)),!e||1===e.x&&1===e.y||this.scaleSelf(e.x,e.y),i&&(i.x||i.y)&&this.translateSelf(i.x,i.y),this}},{key:"decompose",value:function(){var t=arguments.length>0&&void 0!==arguments[0]?arguments[0]:0,n=arguments.length>1&&void 0!==arguments[1]?arguments[1]:0,r=this.m,e=r[0]*r[0]+r[1]*r[1],i=[[r[0],r[1]],[r[2],r[3]]],o=nt(e);if(0===o)return{origin:{x:s(r[4]),y:s(r[5])},translate:{x:s(t),y:s(n)},scale:{x:0,y:0},skew:{x:0,y:0},rotate:0};i[0][0]/=o,i[0][1]/=o;var u=r[0]*r[3]-r[1]*r[2]<0;u&&(o=-o);var a=i[0][0]*i[1][0]+i[0][1]*i[1][1];i[1][0]-=i[0][0]*a,i[1][1]-=i[0][1]*a;var l=nt(i[1][0]*i[1][0]+i[1][1]*i[1][1]);if(0===l)return{origin:{x:s(r[4]),y:s(r[5])},translate:{x:s(t),y:s(n)},scale:{x:s(o),y:0},skew:{x:0,y:0},rotate:0};i[1][0]/=l,i[1][1]/=l,a/=l;var f=0;return i[1][1]<0?(f=J(i[1][1])*tt,i[0][1]<0&&(f=360-f)):f=K(i[0][1])*tt,u&&(f=-f),a=X(a,nt(i[0][0]*i[0][0]+i[0][1]*i[0][1]))*tt,u&&(a=-a),{origin:{x:s(r[4]),y:s(r[5])},translate:{x:s(t),y:s(n)},scale:{x:s(o),y:s(l)},skew:{x:s(a),y:0},rotate:s(f)}}},{key:"toString",value:function(){return null===this.s&&(this.s="matrix("+this.m.map((function(t){return s(t)})).join(" ")+")"),this.s}}]),t}();Object.freeze({M:2,L:2,Z:0,H:1,V:1,C:6,Q:4,T:2,S:4,A:7});var et={},it=null;function ot(n){var r=function(){if(it)return it;if("object"!==("undefined"==typeof document?"undefined":t(document))||!document.createElementNS)return{};var n=document.createElementNS("http://www.w3.org/2000/svg","svg");return n&&n.style?(n.style.position="absolute",n.style.opacity="0.01",n.style.zIndex="-9999",n.style.left="-9999px",n.style.width="1px",n.style.height="1px",it={svg:n}):{}}().svg;if(!r)return function(t){return null};var e=document.createElementNS(r.namespaceURI,"path");e.setAttributeNS(null,"d",n),e.setAttributeNS(null,"fill","none"),e.setAttributeNS(null,"stroke","none"),r.appendChild(e);var i=e.getTotalLength();return function(t){var n=e.getPointAtLength(i*t);return{x:n.x,y:n.y}}}function ut(t){return et[t]?et[t]:et[t]=ot(t)}function at(t,n,r,e){if(!t||!e)return!1;var i=["M",t.x,t.y];if(n&&r&&(i.push("C"),i.push(n.x),i.push(n.y),i.push(r.x),i.push(r.y)),n?!r:r){var o=n||r;i.push("Q"),i.push(o.x),i.push(o.y)}return n||r||i.push("L"),i.push(e.x),i.push(e.y),i.join(" ")}function lt(t,n,r,e){var i=arguments.length>4&&void 0!==arguments[4]?arguments[4]:1,o=at(t,n,r,e),u=ut(o);try{return u(i)}catch(t){return null}}function ft(t,n,r,e){var i=1-e;return i*i*t+2*i*e*n+e*e*r}function st(t,n,r,e){return 2*(1-e)*(n-t)+2*e*(r-n)}function ct(t,n,r,e){var i=arguments.length>4&&void 0!==arguments[4]&&arguments[4],o=lt(t,n,null,r,e);return o||(o={x:ft(t.x,n.x,r.x,e),y:ft(t.y,n.y,r.y,e)}),i&&(o.a=ht(t,n,r,e)),o}function ht(t,n,r,e){return Math.atan2(st(t.y,n.y,r.y,e),st(t.x,n.x,r.x,e))}function vt(t,n,r,e,i){var o=i*i;return i*o*(e-t+3*(n-r))+3*o*(t+r-2*n)+3*i*(n-t)+t}function yt(t,n,r,e,i){var o=1-i;return 3*(o*o*(n-t)+2*o*i*(r-n)+i*i*(e-r))}function dt(t,n,r,e,i){var o=arguments.length>5&&void 0!==arguments[5]&&arguments[5],u=lt(t,n,r,e,i);return u||(u={x:vt(t.x,n.x,r.x,e.x,i),y:vt(t.y,n.y,r.y,e.y,i)}),o&&(u.a=gt(t,n,r,e,i)),u}function gt(t,n,r,e,i){return Math.atan2(yt(t.y,n.y,r.y,e.y,i),yt(t.x,n.x,r.x,e.x,i))}function pt(t,n,r){return t+(n-t)*r}function mt(t,n,r){var e=arguments.length>3&&void 0!==arguments[3]&&arguments[3],i={x:pt(t.x,n.x,r),y:pt(t.y,n.y,r)};return e&&(i.a=bt(t,n)),i}function bt(t,n){return Math.atan2(n.y-t.y,n.x-t.x)}function wt(t,n,r){var e=arguments.length>3&&void 0!==arguments[3]&&arguments[3];if(kt(n)){if(At(r))return ct(n,r.start,r,t,e)}else if(kt(r)){if(n.end)return ct(n,n.end,r,t,e)}else{if(n.end)return r.start?dt(n,n.end,r.start,r,t,e):ct(n,n.end,r,t,e);if(r.start)return ct(n,r.start,r,t,e)}return mt(n,r,t,e)}function xt(t,n,r){var e=wt(t,n,r,!0);return e.a=function(t){var n=arguments.length>1&&void 0!==arguments[1]&&arguments[1];return n?t+Math.PI:t}(e.a)/h,e}function kt(t){return!t.type||"corner"===t.type}function At(t){return null!=t.start&&!kt(t)}var St=new rt;var _t={f:Q,i:w},Ot={f:Q,i:function(t,n,r){var e=w(t,n,r);return e<=0?0:e>=1?1:e}};function Mt(t,n,r,e,i,o,u,a){return n=function(t,n,r){for(var e,i,o,u=t.length-1,a={},l=0;l<=u;l++)(e=t[l]).e&&(e.e=n(e.e)),e.v&&"g"===(i=e.v).t&&i.r&&(o=r.getElementById(i.r))&&(a[i.r]=o.querySelectorAll("stop"));return a}(t,e,a),function(e){var i,o=r(e,t,jt);return o?"c"===o.t?V(o.v):"g"===o.t?(n[o.r]&&function(t,n){for(var r=0,e=t.length;r<e;r++)t[r].setAttribute("stop-color",V(n[r]))}(n[o.r],o.v),(i=o.r)?"url(#"+i+")":"none"):"none":"none"}}function jt(t,n,r){if(0===t)return n;if(1===t)return r;if(n&&r){var e=n.t;if(e===r.t)switch(n.t){case"c":return{t:e,v:S(t,n.v,r.v)};case"g":if(n.r===r.r)return{t:e,v:_(t,n.v,r.v),r:n.r}}}return b(t,n,r)}var Pt={fill:Mt,"fill-opacity":Ot,stroke:Mt,"stroke-opacity":Ot,"stroke-width":_t,"stroke-dashoffset":{f:Q,i:w},"stroke-dasharray":{f:function(t){var n=arguments.length>1&&void 0!==arguments[1]?arguments[1]:" ";return t&&t.length>0&&(t=t.map((function(t){return s(t,4)}))),U(t,n)},i:function(t,n,r){var e,i,o,u=n.length,a=r.length;if(u!==a)if(0===u)n=O(u=a,0);else if(0===a)a=u,r=O(u,0);else{var l=(o=(e=u)*(i=a)/function(t,n){for(var r;n;)r=n,n=t%n,t=r;return t||1}(e,i))<0?-o:o;n=M(n,Math.floor(l/u)),r=M(r,Math.floor(l/a)),u=a=l}for(var f=[],c=0;c<u;c++)f.push(s(x(t,n[c],r[c])));return f}},opacity:Ot,transform:function(n,r,e,i){if(!(n=function(n,r){if(!n||"object"!==t(n))return null;var e=!1;for(var i in n)n.hasOwnProperty(i)&&(n[i]&&n[i].length?(n[i].forEach((function(t){t.e&&(t.e=r(t.e))})),e=!0):delete n[i]);return e?n:null}(n,i)))return null;var o=function(t,i,o){var u=arguments.length>3&&void 0!==arguments[3]?arguments[3]:null;return n[t]?e(i,n[t],o):r&&r[t]?r[t]:u};return r&&r.a&&n.o?function(t){var r=e(t,n.o,xt);return St.recomposeSelf(r,o("r",t,w,0)+r.a,o("k",t,k),o("s",t,k),o("t",t,k)).toString()}:function(t){return St.recomposeSelf(o("o",t,wt,null),o("r",t,w,0),o("k",t,k),o("s",t,k),o("t",t,k)).toString()}},r:_t,"#size":H,"#radius":G,_:function(t,n){if(Array.isArray(t))for(var r=0;r<t.length;r++)this[t[r]]=n;else this[t]=n}};return function(t){!function(t,n){if("function"!=typeof n&&null!==n)throw new TypeError("Super expression must either be null or a function");t.prototype=Object.create(n&&n.prototype,{constructor:{value:t,writable:!0,configurable:!0}}),n&&o(t,n)}(u,t);var r=a(u);function u(){return n(this,u),r.apply(this,arguments)}return e(u,null,[{key:"build",value:function(t){var n=l(i(u),"build",this).call(this,t,Pt);if(!n)return null;n.el,n.options;var r=n.player;return function(t,n,r){t.play()}(r),r}}]),u}(D)}));
__SVGATOR_PLAYER__.build({"root":"epSfUl4zWGg1","animations":[{"duration":3000,"direction":1,"iterations":1,"fill":1,"alternate":false,"speed":1,"elements":{"epSfUl4zWGg22":{"transform":{"data":{"t":{"x":-412.5,"y":-555}},"keys":{"o":[{"t":0,"v":{"x":412.5,"y":555,"type":"corner"}},{"t":500,"v":{"x":412.5,"y":550,"type":"corner"}},{"t":1100,"v":{"x":412.5,"y":539,"type":"corner"}},{"t":1400,"v":{"x":412.5,"y":555,"type":"corner"}}]}}},"epSfUl4zWGg23":{"transform":{"data":{"t":{"x":-412.5,"y":-525}},"keys":{"o":[{"t":0,"v":{"x":412.5,"y":525,"type":"corner"}},{"t":600,"v":{"x":412.5,"y":534,"type":"corner"}},{"t":1000,"v":{"x":412.5,"y":456,"type":"corner"}},{"t":1400,"v":{"x":412.5,"y":525,"type":"corner"}}]}}},"epSfUl4zWGg24":{"transform":{"data":{"t":{"x":-412.5,"y":-485}},"keys":{"o":[{"t":0,"v":{"x":412.5,"y":489,"type":"corner"}},{"t":600,"v":{"x":412.5,"y":516,"type":"corner"}},{"t":1200,"v":{"x":412.5,"y":456,"type":"corner"}},{"t":1400,"v":{"x":412.5,"y":489,"type":"corner"}}]}}},"epSfUl4zWGg25":{"transform":{"data":{"t":{"x":-412.5,"y":-455}},"keys":{"o":[{"t":0,"v":{"x":412.5,"y":456,"type":"corner"}},{"t":400,"v":{"x":412.5,"y":499,"type":"corner"}},{"t":900,"v":{"x":412.5,"y":456,"type":"corner"}},{"t":1400,"v":{"x":412.5,"y":456,"type":"corner"}}]}}},"epSfUl4zWGg36":{"transform":{"data":{"s":{"x":0.251822,"y":1.125041},"t":{"x":-48.659865,"y":-254.74725}},"keys":{"o":[{"t":0,"v":{"x":12.695657,"y":382.262801,"type":"corner"}},{"t":1400,"v":{"x":472.695657,"y":382.262801,"type":"corner"}}]}}}}}],"options":{"start":"load","hover":null,"click":null,"scroll":null,"font":"embed","exportedIds":"unique","svgFormat":"animated","title":"Group 18"},"animationSettings":{"duration":3000,"direction":1,"iterations":1,"fill":1,"alternate":false,"speed":1}})]]></script></svg>